<?xml version="1.0" encoding="UTF-8" standalone="no"?>
<!-- Uploaded to: SVG Repo, www.svgrepo.com, Generator: SVG Repo Mixer Tools -->

<svg
   fill="#000000"
   width="700"
   height="731.125"
   viewBox="0 0 21 21.93375"
   role="img"
   version="1.1"
   id="svg1"
   xmlns="http://www.w3.org/2000/svg"
   xmlns:svg="http://www.w3.org/2000/svg"
   xmlns:rdf="http://www.w3.org/1999/02/22-rdf-syntax-ns#"
   xmlns:cc="http://creativecommons.org/ns#"
   xmlns:dc="http://purl.org/dc/elements/1.1/">
  <defs
     id="defs1" />
  <title
     id="title1">Palantir icon</title>
  <path
     d="m 82.590022,11.793074 0.495995,-0.167325 0.494298,0.167325 -3e-5,-0.166253 L 83.089502,11.489999 82.59,11.626821 Z m 0.504815,0.736131 c 0.660437,2.39e-4 0.649978,-0.798457 -0.01046,-0.798703 -0.659946,0.0098 -0.649487,0.798949 0.01046,0.798703 z m -0.0097,-0.660311 c 0.382691,-2.82e-4 0.472875,0.442073 0.0032,0.448824 -0.47876,-0.0068 -0.379222,-0.448523 -0.0032,-0.448824 z"
     id="path1-1"
     style="stroke-width:0.0521203" />
  <path
     d="M 4.6428755e-4,6.3967802 10.469057,2.8651787 20.901831,6.3967802 20.901204,2.8878043 10.542612,5.7184413e-6 -9.2454447e-8,2.8878043 Z M 10.655214,21.933743 C 24.594558,21.938759 24.373809,5.0813121 10.434444,5.0761208 -3.4945401,5.2829617 -3.2737893,21.938934 10.655214,21.933743 Z M 10.450483,7.9970562 c 8.077169,-0.00602 9.980615,9.3305008 0.06754,9.4729898 C 0.413193,17.326523 2.5140658,8.0034084 10.450483,7.9970562 Z"
     id="path1-1-0"
     style="stroke-width:1.10006;fill:#ffffff" />
  <metadata
     id="metadata1">
    <rdf:RDF>
      <cc:Work
         rdf:about="">
        <dc:title>Palantir icon</dc:title>
      </cc:Work>
    </rdf:RDF>
  </metadata>
</svg>
