<?xml version="1.0" encoding="UTF-8" standalone="no"?>
<!-- Created with Inkscape (http://www.inkscape.org/) -->

<svg
   width="700"
   height="161.17799"
   viewBox="0 0 185.20833 42.64501"
   version="1.1"
   id="svg1"
   xmlns="http://www.w3.org/2000/svg"
   xmlns:svg="http://www.w3.org/2000/svg">
  <defs
     id="defs1" />
  <g
     id="layer1">
    <g
       id="g1"
       transform="matrix(1.9137042,0,0,1.9137042,-23.143999,18.095155)">
      <path
         id="path1"
         style="fill:#ffffff;fill-opacity:1;stroke-width:1.28195"
         d="M 24.873853,-9.1603641 H 21.597675 V 8.224018 c 0,2.479274 -1.033025,4.014054 -3.099081,4.014054 -2.095571,0 -3.128597,-1.53478 -3.128597,-4.014054 V -9.1603641 H 12.09382 V 6.4235992 c 0,4.6633808 2.154599,6.4047898 5.755441,6.4047898 2.744903,0 4.81096,-0.974004 5.401261,-2.62686 0.649333,1.652856 2.626848,2.62686 5.371747,2.62686 3.630356,0 5.755445,-1.741409 5.755445,-6.4047898 V -9.1603641 H 31.131052 V 8.224018 c 0,2.479274 -1.062538,4.014054 -3.128597,4.014054 -2.095569,0 -3.128602,-1.53478 -3.128602,-4.014054 z m 16.174252,13.3998615 0.914967,-9.0906597 c 0.236109,-2.4202366 1.121571,-4.0140598 2.213629,-4.0140598 1.033033,0 1.977516,1.5052756 2.243151,4.0140598 l 0.914966,9.0906597 z m 10.418827,8.2937236 -1.62333,-15.6134726 c -0.472218,-4.663382 -2.449751,-6.3752545 -5.637381,-6.3752545 -3.187635,0 -5.165145,1.7118725 -5.666899,6.3752545 L 36.915991,12.533221 h 3.276174 l 0.796908,-7.7034393 h 6.434292 l 0.796905,7.7034393 z m 2.066085,-7.2016752 v 1.0920534 c 0,4.6633808 2.331691,6.4047898 6.640892,6.4047898 4.633869,0 7.319744,-2.03655 7.319744,-5.6078778 0,-7.14265903 -10.684466,-6.52283893 -10.684466,-12.6619625 0,-1.0330361 0.295137,-3.4237708 3.600842,-3.4237708 2.59733,0 3.512296,1.5052756 3.512296,4.0140598 v 2.8629643 h 3.276177 v -1.0920536 c 0,-4.663382 -2.007026,-6.3752545 -6.316233,-6.3752545 -4.633867,0 -7.349252,2.0070133 -7.349252,5.6078511 0,7.1426566 10.71398,6.1981873 10.71398,12.602945 0,1.062551 -0.324651,3.482782 -3.600849,3.482782 -2.626841,0 -3.836961,-1.53478 -3.836961,-4.014054 V 5.3315458 Z m 20.099758,-1.0920484 0.91497,-9.0906597 c 0.23611,-2.4202366 1.12158,-4.0140598 2.21362,-4.0140598 1.03304,0 1.97752,1.5052756 2.24316,4.0140598 l 0.91496,9.0906597 z m 10.41882,8.2937236 -1.62333,-15.6134726 c -0.47223,-4.663382 -2.44975,-6.3752545 -5.63738,-6.3752545 -3.18763,0 -5.165136,1.7118725 -5.666893,6.3752545 l -1.62333,15.6134726 h 3.276173 l 0.79691,-7.7034393 h 6.43429 l 0.7969,7.7034393 z m 15.31834,-21.6935851 h -3.27615 V 8.224018 c 0,2.479274 -1.03304,4.014054 -3.0991,4.014054 -2.09556,0 -3.1286,-1.53478 -3.1286,-4.014054 V -9.1603641 h -3.27617 V 6.4235992 c 0,4.6633808 2.15461,6.4047898 5.75546,6.4047898 2.74487,0 4.81096,-0.974004 5.40125,-2.62686 0.64933,1.652856 2.626845,2.62686 5.371735,2.62686 3.63037,0 5.75548,-1.741409 5.75548,-6.4047898 V -9.1603641 h -3.24669 V 8.224018 c 0,2.479274 -1.06256,4.014054 -3.12861,4.014054 -2.09556,0 -3.128605,-1.53478 -3.128605,-4.014054 z" />
    </g>
  </g>
</svg>
